# xmcd
#
# Track frame offsets: 
#        150
#        24207
#        43359
#        60374
#        78083
#        99759
#        148139
#        164986
#        179366
#        193259
#
# Disc length: 2752 seconds
#
# Revision: 0
# Processed by: cddbd v1.5.2PL0 Copyright (c) Steve Scherf et al.
# Submitted via: ExactAudioCopy v1.0b1
#
DISCID=840abe0a
DTITLE=C.R. Avery - The Great Canadian Novel
DYEAR=2010
DGENRE=Folk/Blues
TTITLE0=Folk Singer
TTITLE1=Town To Town
TTITLE2=For Gangsters Of The Highway
TTITLE3=Lemon Meringue Pie
TTITLE4=Tragic Figure
TTITLE5=Channeling Frustrated Energy
TTITLE6=Midnight Gold Mining
TTITLE7=Bigger Fish To Fry
TTITLE8=Rain Falls
TTITLE9=Pierre Elliott Trudeau
EXTD=
EXTT0=
EXTT1=
EXTT2=
EXTT3=
EXTT4=
EXTT5=
EXTT6=
EXTT7=
EXTT8=
EXTT9=
PLAYORDER=
